<svg width="256" height="256" xmlns="http://www.w3.org/2000/svg">

 <g>
  <title>background</title>
  <rect fill="none" id="canvas_background" height="402" width="582" y="-1" x="-1"/>
 </g>
 <g>
  <title>Layer 1</title>
  <path stroke-miterlimit="10" stroke-linejoin="round" stroke-linecap="round" stroke-width="4" stroke="#000000" fill="none" id="svg_1" d="m90.122002,111.335999c4.813995,10.697998 40.474998,41.901001 43.862999,42.080002s58.662003,-49.389999 57.057007,-52.778s-111.796005,-4.458 -114.828011,-1.07c-3.030998,3.388 -1.961998,78.096992 0.713005,80.236992s111.082993,2.318008 113.401001,-1.425995c2.317993,-3.744003 4.813995,-57.414001 1.78299,-60.623001" class="st0"/>
  <path stroke-miterlimit="10" stroke-linejoin="round" stroke-linecap="round" stroke-width="4" stroke="#000000" fill="none" id="svg_2" d="m108.267998,237.352005c59.036003,15.088989 118.653008,-21.832001 130.647987,-77.67601c11.710999,-54.523994 -25.235992,-108.670994 -78.550995,-121.911995c-54.049988,-13.424 -112.362991,18.418999 -127.043991,72.412003c-22.447,84.527 54.151001,122.096992 57.994003,122.090004" class="st0"/>
 </g>
</svg>